<svg width="110" height="73" viewBox="0 0 110 73" fill="none" xmlns="http://www.w3.org/2000/svg">
<path d="M23.6458 46.916C26.6475 46.9154 29.5572 47.9519 31.8825 49.8501C34.2078 51.7483 35.8058 54.3916 36.4062 57.3327H73.1249V5.24935H15.8333C13.0706 5.24935 10.4211 6.34682 8.46756 8.30032C6.51405 10.2538 5.41659 12.9033 5.41659 15.666V57.3327H10.8853C11.4857 54.3916 13.0837 51.7483 15.409 49.8501C17.7343 47.9519 20.6441 46.9154 23.6458 46.916ZM23.6458 72.9577C20.6441 72.9583 17.7343 71.9218 15.409 70.0236C13.0837 68.1254 11.4857 65.4821 10.8853 62.541H0.208252V15.666C0.208252 11.522 1.85445 7.54773 4.78471 4.61747C7.71496 1.68722 11.6892 0.0410156 15.8333 0.0410156H73.1249C74.5063 0.0410156 75.831 0.58975 76.8078 1.5665C77.7845 2.54325 78.3333 3.86801 78.3333 5.24935V15.666H93.9583L109.583 36.4993V62.541H98.9062C98.3085 65.4845 96.7116 68.1308 94.386 70.0316C92.0605 71.9324 89.1493 72.9707 86.1458 72.9707C83.1422 72.9707 80.231 71.9324 77.9055 70.0316C75.5799 68.1308 73.983 65.4845 73.3853 62.541H36.4062C35.8058 65.4821 34.2078 68.1254 31.8825 70.0236C29.5572 71.9218 26.6475 72.9583 23.6458 72.9577ZM23.6458 52.1243C21.5737 52.1243 19.5866 52.9474 18.1215 54.4126C16.6564 55.8777 15.8333 57.8648 15.8333 59.9368C15.8333 62.0089 16.6564 63.996 18.1215 65.4611C19.5866 66.9262 21.5737 67.7493 23.6458 67.7493C25.7178 67.7493 27.7049 66.9262 29.17 65.4611C30.6352 63.996 31.4583 62.0089 31.4583 59.9368C31.4583 57.8648 30.6352 55.8777 29.17 54.4126C27.7049 52.9474 25.7178 52.1243 23.6458 52.1243ZM86.1458 46.916C89.1475 46.9154 92.0572 47.9519 94.3825 49.8501C96.7078 51.7483 98.3058 54.3916 98.9062 57.3327H104.375V38.166L103.125 36.4993H78.3333V49.5202C80.5208 47.9056 83.2291 46.916 86.1458 46.916ZM86.1458 52.1243C84.0738 52.1243 82.0866 52.9474 80.6215 54.4126C79.1564 55.8777 78.3333 57.8648 78.3333 59.9368C78.3333 62.0089 79.1564 63.996 80.6215 65.4611C82.0866 66.9262 84.0738 67.7493 86.1458 67.7493C88.2178 67.7493 90.2049 66.9262 91.67 65.4611C93.1351 63.996 93.9583 62.0089 93.9583 59.9368C93.9583 57.8648 93.1351 55.8777 91.67 54.4126C90.2049 52.9474 88.2178 52.1243 86.1458 52.1243ZM78.3333 20.8743V31.291H99.1666L91.3541 20.8743H78.3333Z" fill="#0067E1"/>
</svg>
