<svg width="60" height="96" viewBox="0 0 60 96" fill="none" xmlns="http://www.w3.org/2000/svg">
<path fill-rule="evenodd" clip-rule="evenodd" d="M59.3334 8.61333V0H54.0001V8H6.00008V0H0.666748V8.61333C0.66671 15.6364 2.30708 22.5624 5.45715 28.8394C8.60721 35.1163 13.1799 40.5708 18.8108 44.768C20.4864 43.7098 22.2227 42.7508 24.0107 41.896C19.0662 38.666 14.9039 34.3744 11.8267 29.3333H48.1734C43.8925 36.3452 37.5434 41.8577 30.0001 45.112L29.9574 45.1307C29.6427 45.264 29.3272 45.3956 29.0107 45.5253C27.2081 46.2471 25.4739 47.072 23.8081 48C17.4919 51.5194 12.1147 56.5061 8.12993 62.5395C4.14513 68.5728 1.66959 75.476 0.912081 82.6667H0.666748V96H6.00008V88H54.0001V96H59.3334V82.6667H59.0854C58.4326 76.4761 56.5059 70.4877 53.4265 65.0779C50.3472 59.668 46.1817 54.9539 41.1921 51.232C39.5164 52.2902 37.7801 53.2492 35.9921 54.104C40.9347 57.3346 45.0951 61.6262 48.1707 66.6667H11.8241C16.1057 59.6544 22.4558 54.1418 30.0001 50.888L30.0428 50.8693C30.3574 50.736 30.673 50.6044 30.9894 50.4747C39.3557 47.1277 46.5273 41.351 51.5794 33.8895C56.6314 26.4281 59.3322 17.6242 59.3334 8.61333ZM50.9041 72H9.09875C7.671 75.4083 6.72242 78.998 6.28008 82.6667H53.7201C53.2777 78.998 52.3292 75.4083 50.9014 72M9.09875 24H50.9041C52.3174 20.6293 53.2774 17.0453 53.7201 13.3333H6.28008C6.72157 17.0019 7.66925 20.5916 9.09608 24" fill="#0067E1"/>
</svg>
