<svg width="95" height="95" viewBox="0 0 95 95" fill="none" xmlns="http://www.w3.org/2000/svg">
<path d="M47.5156 94.375C41.0365 94.375 34.9427 93.1458 29.2344 90.6875C23.5295 88.2257 18.566 84.8854 14.3437 80.6667C10.1215 76.4479 6.77951 71.4896 4.31771 65.7917C1.8559 60.0938 0.625 54.0017 0.625 47.5156C0.625 41.0295 1.8559 34.9358 4.31771 29.2344C6.77604 23.5295 10.1111 18.566 14.3229 14.3437C18.5347 10.1215 23.4948 6.77951 29.2031 4.31771C34.9115 1.8559 41.0052 0.625 47.4844 0.625C53.9635 0.625 60.0573 1.8559 65.7656 4.31771C71.4705 6.77604 76.434 10.1128 80.6562 14.3281C84.8785 18.5434 88.2205 23.5035 90.6823 29.2083C93.1441 34.9132 94.375 41.0052 94.375 47.4844C94.375 53.9635 93.1458 60.0573 90.6875 65.7656C88.2292 71.474 84.8889 76.4375 80.6667 80.6562C76.4445 84.875 71.4861 88.217 65.7917 90.6823C60.0972 93.1476 54.0052 94.3785 47.5156 94.375ZM47.5 89.1667C59.1319 89.1667 68.9844 85.1302 77.0573 77.0573C85.1302 68.9844 89.1667 59.1319 89.1667 47.5C89.1667 46.8924 89.1615 46.2795 89.151 45.6615C89.1406 45.0434 89.1024 44.4514 89.0365 43.8854C88.8038 46.2014 87.8837 48.1181 86.276 49.6354C84.6649 51.1493 82.691 51.9062 80.3542 51.9062H67.1302C64.7066 51.9062 62.6319 51.0451 60.9063 49.3229C59.1806 47.6007 58.3177 45.5295 58.3177 43.1094V38.7083H40.6875V29.9062C40.6875 27.4861 41.5521 25.4062 43.2812 23.6667C45.0069 21.9271 47.0816 21.0573 49.5052 21.0573H53.9115V17.0469C53.9115 14.5191 54.7378 12.5295 56.3906 11.0781C58.0434 9.62674 60.0174 8.78993 62.3125 8.56771C59.9757 7.66493 57.5799 6.98437 55.125 6.52604C52.6701 6.06771 50.1285 5.83681 47.5 5.83333C35.8681 5.83333 26.0156 9.86979 17.9427 17.9427C9.86979 26.0156 5.83333 35.8681 5.83333 47.5V49.0052C5.83333 49.4705 5.86806 49.9705 5.9375 50.5052H29.2708C34.2014 50.5052 38.3715 52.2118 41.7813 55.625C45.1944 59.0347 46.901 63.1892 46.901 68.0885V72.5417H33.6771V86.7604C35.816 87.5312 38.0486 88.125 40.375 88.5417C42.7014 88.9583 45.0764 89.1667 47.5 89.1667Z" fill="#0067E1"/>
</svg>
