<svg width="21" height="15" viewBox="0 0 21 15" fill="none" xmlns="http://www.w3.org/2000/svg">
<path d="M18.9766 0C19.3932 0 19.7513 0.149739 20.0508 0.449219C20.3503 0.748698 20.5 1.10677 20.5 1.52344V13.4766C20.5 13.8932 20.3503 14.2513 20.0508 14.5508C19.7513 14.8503 19.3932 15 18.9766 15H2.02344C1.60677 15 1.2487 14.8503 0.949219 14.5508C0.64974 14.2513 0.5 13.8932 0.5 13.4766V1.52344C0.5 1.10677 0.64974 0.748698 0.949219 0.449219C1.2487 0.149739 1.60677 0 2.02344 0H18.9766ZM18.7422 1.13281H2.49219L10.6172 8.08594L18.7422 1.13281ZM19.3672 13.4766V2.10938L10.9688 9.25781V9.29688H10.9297C10.9036 9.32292 10.8906 9.33594 10.8906 9.33594C10.8906 9.33594 10.8776 9.34896 10.8516 9.375H10.8125C10.8125 9.375 10.7995 9.375 10.7734 9.375C10.7474 9.375 10.7344 9.375 10.7344 9.375C10.7344 9.375 10.7214 9.375 10.6953 9.375C10.6953 9.40104 10.6823 9.41406 10.6562 9.41406C10.6562 9.41406 10.6432 9.41406 10.6172 9.41406C10.5911 9.41406 10.5716 9.41406 10.5586 9.41406C10.5456 9.41406 10.5391 9.41406 10.5391 9.41406C10.5391 9.41406 10.5326 9.41406 10.5195 9.41406C10.5065 9.41406 10.5 9.40104 10.5 9.375H10.4609C10.4609 9.375 10.4544 9.375 10.4414 9.375C10.4284 9.375 10.4089 9.375 10.3828 9.375C10.3568 9.34896 10.3307 9.33594 10.3047 9.33594C10.3047 9.33594 10.2917 9.32292 10.2656 9.29688L10.2266 9.25781L1.63281 1.91406V13.4766C1.63281 13.5807 1.67188 13.6719 1.75 13.75C1.82812 13.8281 1.91927 13.8672 2.02344 13.8672H18.9766C19.0807 13.8672 19.1719 13.8281 19.25 13.75C19.3281 13.6719 19.3672 13.5807 19.3672 13.4766Z" fill="#02263E"/>
</svg>
