<svg width="105" height="95" viewBox="0 0 105 95" fill="none" xmlns="http://www.w3.org/2000/svg">
<path d="M50.9479 88.8639C51.6284 88.8639 52.3263 88.7112 53.0416 88.4056C53.7569 88.1001 54.335 87.7268 54.776 87.2858L95.3802 46.6764C96.6892 45.3674 97.6996 44.0306 98.4114 42.666C99.1198 41.2945 99.4739 39.791 99.4739 38.1556C99.4739 36.4994 99.1198 34.8917 98.4114 33.3327C97.6996 31.7702 96.6892 30.3466 95.3802 29.0618L75.8489 9.5306C74.5607 8.22157 73.2361 7.2615 71.875 6.65039C70.5173 6.03928 69.0104 5.73372 67.3541 5.73372C65.7187 5.73372 64.1996 6.03928 62.7968 6.65039C61.3941 7.2615 60.0729 8.21984 58.8333 9.52539L54.2916 14.0671L63.927 23.7285C64.9618 24.7459 65.7343 25.9021 66.2447 27.1973C66.7517 28.4924 67.0052 29.8066 67.0052 31.14C67.0052 33.8518 66.118 36.0948 64.3437 37.8691C62.5694 39.6434 60.3281 40.5289 57.6197 40.5254C56.2829 40.5254 54.9791 40.3223 53.7083 39.916C52.4375 39.5098 51.2934 38.798 50.276 37.7806L42.6145 30.1556C42.0138 29.5549 41.2465 29.2546 40.3125 29.2546C39.375 29.2546 38.6059 29.5549 38.0052 30.1556L17.8229 50.3379C17.2986 50.8657 16.9045 51.4646 16.6406 52.1348C16.3767 52.8049 16.2447 53.482 16.2447 54.166C16.2447 55.3952 16.6388 56.4073 17.427 57.2025C18.2118 58.0011 19.2187 58.4004 20.4479 58.4004C21.1284 58.4004 21.8263 58.2476 22.5416 57.9421C23.2569 57.633 23.835 57.258 24.276 56.8171L38.9375 42.1556C39.4236 41.6695 40.0173 41.4039 40.7187 41.3587C41.4201 41.3136 42.0555 41.5792 42.625 42.1556C43.1805 42.7112 43.4583 43.3257 43.4583 43.9994C43.4583 44.673 43.1805 45.2875 42.625 45.8431L27.9895 60.5046C27.4618 61.0323 27.0659 61.6313 26.802 62.3014C26.5416 62.975 26.4114 63.6521 26.4114 64.3327C26.4114 65.4959 26.8211 66.4872 27.6406 67.3066C28.46 68.1261 29.4513 68.5376 30.6145 68.541C31.2951 68.541 31.993 68.3865 32.7083 68.0775C33.4236 67.7684 34.0017 67.3952 34.4427 66.9577L50.3072 51.1244C50.7934 50.6348 51.3854 50.3674 52.0833 50.3223C52.7812 50.2771 53.4166 50.5428 53.9895 51.1191C54.5451 51.6747 54.8229 52.2893 54.8229 52.9629C54.8229 53.6365 54.5451 54.2511 53.9895 54.8066L38.1562 70.6712C37.6979 71.1122 37.3194 71.6903 37.0208 72.4056C36.7222 73.1209 36.5729 73.8188 36.5729 74.4994C36.5729 75.6591 36.9843 76.6487 37.8072 77.4681C38.6302 78.2945 39.6215 78.7077 40.7812 78.7077C41.4618 78.7077 42.1388 78.5757 42.8125 78.3119C43.4861 78.048 44.0833 77.6521 44.6041 77.1244L60.4739 61.291C60.96 60.8014 61.552 60.5341 62.25 60.4889C62.9479 60.4473 63.585 60.7129 64.1614 61.2858C64.7135 61.8414 64.9895 62.456 64.9895 63.1296C64.9895 63.8032 64.7118 64.4178 64.1562 64.9733L48.2968 80.8327C47.7725 81.3605 47.3784 81.9941 47.1145 82.7337C46.8506 83.4733 46.7187 84.1487 46.7187 84.7598C46.7187 85.9889 47.151 86.9803 48.0156 87.7337C48.8802 88.4872 49.8593 88.8639 50.9531 88.8639M50.9218 94.0723C48.2447 94.0723 45.9531 93.0931 44.0468 91.1348C42.1406 89.1764 41.3038 86.7563 41.5364 83.8743C38.585 83.9091 36.1284 83.0289 34.1666 81.2337C32.2048 79.4386 31.2725 76.9316 31.3697 73.7129C28.1545 73.7476 25.6197 72.8275 23.7656 70.9525C21.9114 69.0775 21.0677 66.6087 21.2343 63.5462C18.3385 63.581 15.9149 62.765 13.9635 61.0983C12.0156 59.4386 11.0416 57.1261 11.0416 54.1608C11.0416 52.824 11.3003 51.4872 11.8177 50.1504C12.335 48.8101 13.0989 47.633 14.1093 46.6191L34.3958 26.3327C35.993 24.7389 37.9618 23.9421 40.302 23.9421C42.6423 23.9421 44.6111 24.7407 46.2083 26.3379L53.7656 33.8952C54.2066 34.357 54.7517 34.7372 55.401 35.0358C56.0503 35.3344 56.7812 35.482 57.5937 35.4785C58.7083 35.4785 59.6927 35.0896 60.5468 34.3119C61.401 33.5341 61.8298 32.5202 61.8333 31.2702C61.8333 30.4577 61.684 29.7285 61.3854 29.0827C61.0868 28.4334 60.7083 27.8882 60.25 27.4473L42.3333 9.5306C41.0416 8.22157 39.6996 7.2615 38.3072 6.65039C36.9149 6.03928 35.3906 5.73372 33.7343 5.73372C32.0989 5.73372 30.6128 6.03928 29.276 6.65039C27.9427 7.2615 26.6215 8.22157 25.3125 9.5306L9.45308 25.416C7.63363 27.232 6.46349 29.449 5.94266 32.0671C5.42183 34.6851 5.65967 37.1851 6.6562 39.5671C6.85064 40.2407 6.76384 40.8917 6.39578 41.5202C6.02773 42.1487 5.5069 42.548 4.83328 42.7181C4.15967 42.8882 3.49127 42.798 2.82808 42.4473C2.16488 42.0966 1.74821 41.5809 1.57808 40.9004C0.456548 37.5323 0.211756 34.1313 0.843701 30.6973C1.47565 27.2632 3.10759 24.2303 5.73953 21.5983L21.4895 5.8431C23.3055 4.04449 25.2274 2.70768 27.2552 1.83268C29.2829 0.961155 31.4756 0.525391 33.8333 0.525391C36.1909 0.525391 38.3645 0.962891 40.3541 1.83789C42.3472 2.70942 44.243 4.04449 46.0416 5.8431L50.5729 10.3796L55.1145 5.8431C56.9305 4.04449 58.835 2.70768 60.8281 1.83268C62.8211 0.961155 64.9965 0.525391 67.3541 0.525391C69.7118 0.525391 71.9045 0.962891 73.9322 1.83789C75.9566 2.70942 77.8663 4.04449 79.6614 5.8431L99.0677 25.2441C100.863 27.0393 102.248 29.0549 103.224 31.291C104.2 33.5271 104.686 35.824 104.682 38.1816C104.682 40.5428 104.196 42.7181 103.224 44.7077C102.252 46.6973 100.866 48.5931 99.0677 50.3952L58.4583 90.9681C57.3784 92.0514 56.2013 92.8396 54.927 93.3327C53.6562 93.8257 52.3246 94.0723 50.9218 94.0723Z" fill="#0067E1"/>
</svg>
