<svg width="69" height="73" viewBox="0 0 69 73" fill="none" xmlns="http://www.w3.org/2000/svg">
<path d="M3.89649 22.2012C4.34731 22.3093 12.1041 28.0947 12.4527 28.5134L3.89062 35.0164L3.89649 22.2012Z" fill="#59B2CF"/>
<path d="M56.4258 44.1158L61.3513 40.4216C62.6159 39.458 63.8576 38.4627 65.1909 37.5938L65.1877 46.2884C65.1885 47.7779 65.2559 49.3058 65.1643 50.7904L56.4258 44.1158Z" fill="#59B2CF"/>
<path d="M45.6793 7.74414C50.6799 11.2995 55.648 14.8997 60.5837 18.5448C61.1642 18.9669 64.8855 21.743 65.1236 21.8096C64.392 22.1051 62.926 23.3549 62.1958 23.8924C60.3136 25.294 58.4082 26.6633 56.4797 28.0005C56.0152 27.451 54.0232 26.172 53.3439 25.6805L45.6719 20.1001C45.6089 18.5776 45.656 17.0398 45.6585 15.5153L45.6793 7.74414Z" fill="#59B2CF"/>
<path d="M3.96933 50.8363C4.73463 50.1382 5.58027 49.5112 6.39716 48.8745C8.46142 47.2654 10.5946 45.7412 12.6342 44.1016C13.5219 44.7515 23.5506 52.1368 23.6124 52.1533L23.6235 65.0769C21.1197 63.417 18.7026 61.6038 16.2571 59.8588C12.1287 56.9126 7.97884 53.981 3.89446 50.975C3.90033 49.278 3.831 47.5401 3.94055 45.8483C4.08316 47.3703 3.96668 49.2715 3.96933 50.8363Z" fill="#3D5C7D"/>
<path d="M35.2014 0.0146484C37.6859 2.01555 40.5363 3.93173 43.1245 5.83451C43.9776 6.46162 44.8698 7.06145 45.6792 7.74368L45.6585 15.5148C45.656 17.0393 45.6088 18.5771 45.6718 20.0996L45.6344 35.4318L35.1902 27.5252L35.2014 0.0146484Z" fill="#12264B"/>
<path d="M33.8144 0.0595703V12.4696L26.0719 18.2827C23.9388 19.8762 21.777 21.439 19.6643 23.0584L14.847 26.7385C14.2007 27.2332 13.1378 28.1547 12.4527 28.5134C12.1041 28.0947 4.3473 22.3093 3.89648 22.2012C3.91897 21.9952 3.91909 21.8967 4.0819 21.7574C4.39114 21.4925 4.78124 21.2721 5.11471 21.0346L7.38187 19.3942L14.9606 13.8676C18.6815 11.1044 22.4178 8.36204 26.1695 5.64058C27.8658 4.37855 29.5742 3.13288 31.2946 1.90362C32.1337 1.29353 32.9552 0.638677 33.8144 0.0595703Z" fill="#59B2CF"/>
<path d="M35.1361 60.1046C42.1923 54.7217 49.2889 49.3926 56.4258 44.1172L65.1643 50.7918C59.2154 55.0833 53.2892 59.4062 47.3856 63.7602C43.3079 66.7481 39.1495 69.6467 35.1301 72.7104L35.1361 60.1046Z" fill="url(#paint0_linear_341_84)"/>
<path d="M12.6343 44.1011C13.8496 43.2749 15.0049 42.3337 16.1696 41.4361C18.582 39.5775 20.9706 37.6802 23.4275 35.8809L23.6188 36.0054C25.673 37.5029 27.7134 39.019 29.74 40.5538C31.0571 41.5475 32.3717 42.5752 33.739 43.4984L33.6983 72.2875C32.3086 71.3384 30.9572 70.3306 29.5889 69.351C27.5858 67.9467 25.5973 66.5218 23.6236 65.0764L23.6125 52.1529C23.5506 52.1364 13.5219 44.7511 12.6343 44.1011Z" fill="#12264B"/>
<path d="M12.6343 44.1011C13.8496 43.2749 15.0049 42.3337 16.1696 41.4361C18.582 39.5775 20.9706 37.6802 23.4275 35.8809L23.6188 36.0054C23.4698 37.7349 23.5863 39.5707 23.5928 41.3106C23.6183 44.9247 23.6248 48.5388 23.6125 52.1529C23.5506 52.1364 13.5219 44.7511 12.6343 44.1011Z" fill="#FEFEFE"/>
<path d="M33.814 14.9414V27.6594C33.001 28.3899 32.0915 29.0517 31.2358 29.7339C28.6471 31.7973 25.9723 33.7644 23.4275 35.88C20.9706 37.6793 18.582 39.5766 16.1696 41.4353C15.0048 42.3328 13.8496 43.274 12.6342 44.1002C10.5946 45.7399 8.46138 47.2641 6.39716 48.8732C5.58026 49.5099 4.73462 50.1369 3.96933 50.835C3.96671 49.2701 4.08315 47.369 3.94057 45.8469C3.90635 43.0247 3.93772 40.1991 3.94296 37.3766C6.14076 35.5746 8.48938 33.9115 10.7665 32.2105C14.0807 29.6869 17.4149 27.19 20.7692 24.7198L30.1386 17.6853C31.3632 16.7717 32.5616 15.8165 33.814 14.9414Z" fill="#12264B"/>
<path d="M56.4797 27.9995C58.4082 26.6623 60.3136 25.2929 62.1958 23.8914C62.926 23.3539 64.392 22.1041 65.1236 21.8086C65.3255 22.4842 65.1928 25.0631 65.1904 25.896C65.1818 28.9495 65.1223 32.0175 65.1967 35.0694L48.0784 47.9003L41.867 52.5845C40.7869 53.3986 39.7093 54.3059 38.5736 55.0359C37.4657 55.9771 36.2615 56.8234 35.1289 57.7396L35.1736 43.5874C37.838 41.4795 40.6615 39.523 43.4176 37.5353C45.793 35.8221 48.1281 34.0517 50.4915 32.3215C50.9474 31.8935 51.5898 31.5477 52.1006 31.1759C53.5498 30.1027 55.0095 29.0438 56.4797 27.9995Z" fill="#59B2CF"/>
<defs>
<linearGradient id="paint0_linear_341_84" x1="37.4619" y1="54.9156" x2="59.2569" y2="64.0767" gradientUnits="userSpaceOnUse">
<stop stop-color="#12264B"/>
<stop offset="1" stop-color="#59B2CF"/>
</linearGradient>
</defs>
</svg>
