<svg width="71" height="44" viewBox="0 0 71 44" fill="none" xmlns="http://www.w3.org/2000/svg">
<path d="M48.7582 25.0357V0.351562H59.4721C62.1798 0.351562 64.2689 1.00514 65.7394 2.31229C67.21 3.59609 67.9453 5.40509 67.9453 7.73929C67.9453 9.25651 67.6068 10.5637 66.9299 11.6607C66.2763 12.7578 65.3193 13.5981 64.0588 14.1817C62.7984 14.7652 61.2695 15.057 59.4721 15.057L59.7872 14.5318H60.9427C61.8997 14.5318 62.7283 14.7652 63.4286 15.232C64.1522 15.6989 64.7824 16.4342 65.3193 17.4379L69.4508 25.0357H64.514L60.2424 17.1578C59.9623 16.6442 59.6472 16.2474 59.2971 15.9673C58.9469 15.6639 58.5501 15.4538 58.1066 15.3371C57.6631 15.2204 57.1496 15.162 56.5661 15.162H53.2398V25.0357H48.7582ZM53.2398 11.8358H58.7018C60.3124 11.8358 61.5262 11.509 62.3432 10.8554C63.1835 10.1785 63.6037 9.17482 63.6037 7.84433C63.6037 6.53718 63.1835 5.55682 62.3432 4.90324C61.5262 4.22633 60.3124 3.88787 58.7018 3.88787H53.2398V11.8358Z" fill="#212121"/>
<path d="M35.1781 25.3844C33.8943 25.3844 32.6572 25.2676 31.4668 25.0342C30.2997 24.8241 29.2143 24.509 28.2106 24.0889C27.2302 23.6687 26.3549 23.1669 25.5846 22.5833L26.9501 19.047C27.7204 19.5839 28.5257 20.0507 29.366 20.4475C30.2296 20.821 31.14 21.1128 32.097 21.3229C33.0774 21.5096 34.1044 21.603 35.1781 21.603C37.0221 21.603 38.3643 21.2995 39.2046 20.6926C40.0449 20.0624 40.4651 19.2571 40.4651 18.2767C40.4651 17.7399 40.3367 17.2847 40.0799 16.9112C39.8232 16.5144 39.403 16.176 38.8195 15.8959C38.2359 15.6158 37.4656 15.3823 36.5086 15.1956L32.6572 14.3903C30.4397 13.9235 28.7824 13.1415 27.6854 12.0444C26.6116 10.924 26.0748 9.45348 26.0748 7.63281C26.0748 6.09225 26.4833 4.75008 27.3002 3.60633C28.1172 2.46257 29.2493 1.57558 30.6965 0.945347C32.1437 0.315114 33.8126 0 35.7033 0C36.8237 0 37.8975 0.116707 38.9245 0.350126C39.9749 0.560203 40.9319 0.886992 41.7956 1.33049C42.6826 1.75064 43.4529 2.26417 44.1064 2.87106L42.7409 6.2323C41.7606 5.41533 40.6868 4.80844 39.5197 4.41162C38.3526 3.99147 37.0688 3.78139 35.6683 3.78139C34.5946 3.78139 33.6726 3.93312 32.9023 4.23656C32.132 4.54001 31.5368 4.97183 31.1166 5.53204C30.7198 6.0689 30.5214 6.71081 30.5214 7.45775C30.5214 8.29806 30.8015 8.97497 31.3617 9.4885C31.9219 9.97868 32.8789 10.3638 34.2328 10.6439L38.0492 11.4492C40.36 11.9394 42.0757 12.7097 43.1961 13.7601C44.3398 14.8105 44.9117 16.211 44.9117 17.9616C44.9117 19.4322 44.5149 20.7276 43.7213 21.848C42.9277 22.9685 41.7956 23.8438 40.325 24.474C38.8778 25.0809 37.1622 25.3844 35.1781 25.3844Z" fill="#212121"/>
<path d="M0 25.0357V0.351562H9.17338C11.9277 0.351562 14.2619 0.830074 16.176 1.78709C18.1133 2.74411 19.5839 4.14463 20.5876 5.98864C21.6146 7.80931 22.1282 10.0385 22.1282 12.6761C22.1282 15.3137 21.6146 17.5546 20.5876 19.3986C19.5839 21.2426 18.1133 22.6431 16.176 23.6001C14.2619 24.5572 11.9277 25.0357 9.17338 25.0357H0ZM4.48165 21.3243H8.89328C11.7643 21.3243 13.9001 20.6124 15.3006 19.1885C16.7245 17.7413 17.4364 15.5705 17.4364 12.6761C17.4364 9.78171 16.7245 7.62258 15.3006 6.19872C13.8768 4.77486 11.741 4.06293 8.89328 4.06293H4.48165V21.3243Z" fill="#212121"/>
<path d="M60.5623 43.9998V28.5723H63.3633V41.6146H70.7598V43.9998H60.5623Z" fill="#212121"/>
<path d="M42.6151 43.9998L49.5958 28.5723H51.8935L58.8742 43.9998H56.0294L54.1694 39.667L55.3511 40.4329H46.1164L47.2981 39.667L45.4599 43.9998H42.6151ZM50.7118 31.614L47.6482 38.9011L47.0793 38.2008H54.3882L53.8411 38.9011L50.7556 31.614H50.7118Z" fill="#212121"/>
<path d="M36.1166 43.9998V30.9138H30.8209V28.5723H44.2134V30.9138H38.9177V43.9998H36.1166Z" fill="#212121"/>
<path d="M19.446 43.9998V28.5723H29.7092V30.8043H22.1377V35.0497H29.2278V37.2817H22.1377V41.7678H29.7092V43.9998H19.446Z" fill="#212121"/>
<path d="M0.491821 43.9998V28.5723H2.83331L8.65421 39.3169H7.95395L13.753 28.5723H16.0507V43.9998H13.5122V32.73H13.9937L9.09187 41.6583H7.45064L2.50506 32.7082H3.03026V43.9998H0.491821Z" fill="#212121"/>
</svg>
