<svg width="21" height="21" viewBox="0 0 21 21" fill="none" xmlns="http://www.w3.org/2000/svg">
<path d="M17.5703 17.5703C17.5703 17.5703 17.082 18.0586 16.1055 19.0352C15.1289 20.0117 13.2604 20.5 10.5 20.5C7.73958 20.5 5.38281 19.5234 3.42969 17.5703C1.47656 15.6172 0.5 13.2604 0.5 10.5C0.5 7.73958 1.47656 5.38281 3.42969 3.42969C5.38281 1.47656 7.73958 0.5 10.5 0.5C13.2604 0.5 15.6172 1.47656 17.5703 3.42969C19.5234 5.38281 20.5 7.73958 20.5 10.5C20.5 13.2604 19.5234 15.6172 17.5703 17.5703ZM16.7695 4.23047C16.7695 4.23047 16.3366 3.79753 15.4707 2.93164C14.6048 2.06576 12.9479 1.63281 10.5 1.63281C8.05208 1.63281 5.96224 2.4987 4.23047 4.23047C2.4987 5.96224 1.63281 8.05208 1.63281 10.5C1.63281 12.9479 2.4987 15.0378 4.23047 16.7695C5.96224 18.5013 8.05208 19.3672 10.5 19.3672C12.9479 19.3672 15.0378 18.5013 16.7695 16.7695C18.5013 15.0378 19.3672 12.9479 19.3672 10.5C19.3672 8.05208 18.5013 5.96224 16.7695 4.23047ZM13.9766 13.9766C13.8724 14.0807 13.7357 14.1328 13.5664 14.1328C13.3971 14.1328 13.2604 14.0807 13.1562 13.9766L10.1094 10.8906C9.97917 10.7865 9.91406 10.6562 9.91406 10.5V4.01562C9.91406 3.85938 9.97266 3.72266 10.0898 3.60547C10.207 3.48828 10.3438 3.42969 10.5 3.42969C10.6562 3.42969 10.793 3.48828 10.9102 3.60547C11.0273 3.72266 11.0859 3.85938 11.0859 4.01562V10.2656L13.9766 13.1562C14.237 13.4427 14.237 13.7161 13.9766 13.9766Z" fill="#02263E"/>
</svg>
