<svg width="20" height="21" viewBox="0 0 20 21" fill="none" xmlns="http://www.w3.org/2000/svg">
<path d="M19.336 14.9531C19.7787 15.4219 20 15.9297 20 16.4766C20 17.0234 19.7657 17.5312 19.2969 18C19.1928 18.1042 19.0365 18.2604 18.8282 18.4688C18.4115 18.8854 18.099 19.1979 17.8907 19.4062C17.2396 20.1354 16.3933 20.5 15.3516 20.5C15.2995 20.5 15.2084 20.5 15.0782 20.5C13.8542 20.4219 12.5131 20.0312 11.0547 19.3281C8.3464 18 6.00265 16.1641 4.02348 13.8203C2.46098 11.9714 1.31515 10.0573 0.585983 8.07812C0.143274 6.82812 -0.0520384 5.72135 4.49736e-05 4.75781C0.07817 3.92448 0.403691 3.23438 0.976607 2.6875C1.23702 2.45312 1.54952 2.15365 1.91411 1.78906C1.96619 1.73698 2.02478 1.67188 2.08989 1.59375C2.15499 1.51562 2.23312 1.4375 2.32426 1.35938C2.41541 1.28125 2.48702 1.21615 2.53911 1.16406C2.98182 0.721354 3.47661 0.5 4.02348 0.5C4.57036 0.5 5.06515 0.721354 5.50786 1.16406C5.76827 1.42448 6.05473 1.71094 6.36723 2.02344C6.49744 2.15365 6.62765 2.28385 6.75786 2.41406C6.80994 2.46615 6.87504 2.53125 6.95317 2.60938C7.03129 2.6875 7.0964 2.7526 7.14848 2.80469C7.14848 2.80469 7.25916 2.91537 7.48051 3.13672C7.70187 3.35807 7.87765 3.52083 8.00786 3.625C8.45057 4.09375 8.67192 4.60807 8.67192 5.16797C8.67192 5.72786 8.45057 6.22917 8.00786 6.67188L7.69536 6.98438C7.20057 7.47917 6.82296 7.85677 6.56254 8.11719C6.82296 8.74219 7.23963 9.40625 7.81254 10.1094C8.98442 11.5417 10.2344 12.6745 11.5625 13.5078C11.6667 13.5599 11.849 13.651 12.1094 13.7812C12.1615 13.8073 12.2526 13.8594 12.3829 13.9375C12.6693 13.625 13.112 13.1693 13.711 12.5703L13.8282 12.4922C14.2709 12.0495 14.7657 11.8281 15.3125 11.8281C15.8594 11.8281 16.3672 12.0495 16.836 12.4922C17.7735 13.4297 18.6068 14.25 19.336 14.9531ZM18.5157 17.2188C19.0105 16.724 19.0105 16.2292 18.5157 15.7344C17.9428 15.1875 17.1094 14.3672 16.0157 13.2734C15.7813 13.0391 15.5469 12.9219 15.3125 12.9219C15.0782 12.9219 14.8438 13.0391 14.6094 13.2734L14.4922 13.3906C13.711 14.1719 13.2422 14.6406 13.086 14.7969C12.8776 15.0052 12.6563 15.1094 12.4219 15.1094C12.2657 15.1094 12.1224 15.0703 11.9922 14.9922C11.862 14.9141 11.7318 14.849 11.6016 14.7969C11.3151 14.6667 11.0938 14.5495 10.9375 14.4453C9.5313 13.5599 8.20317 12.349 6.95317 10.8125C6.27609 9.97917 5.78129 9.1849 5.46879 8.42969C5.31254 8.03906 5.37765 7.70052 5.66411 7.41406C5.95057 7.15365 6.36723 6.75 6.91411 6.20312C6.94015 6.15104 6.98572 6.09896 7.05083 6.04688C7.11593 5.99479 7.1615 5.94271 7.18754 5.89062C7.68234 5.39583 7.68234 4.90104 7.18754 4.40625C6.82296 4.04167 6.54952 3.76823 6.36723 3.58594C6.31515 3.53385 6.25004 3.46875 6.17192 3.39062C6.09379 3.3125 6.0352 3.25391 5.99614 3.21484C5.95708 3.17578 5.9115 3.13672 5.85942 3.09766C5.80734 3.05859 5.75525 3.00651 5.70317 2.94141C5.65109 2.8763 5.61202 2.83073 5.58598 2.80469C5.29952 2.51823 5.01307 2.23177 4.72661 1.94531C4.49223 1.73698 4.25135 1.63281 4.00395 1.63281C3.75656 1.63281 3.52869 1.73698 3.32036 1.94531C3.24223 2.02344 3.13156 2.13412 2.98833 2.27734C2.8451 2.42057 2.74744 2.51823 2.69536 2.57031C2.59119 2.67448 2.43494 2.83073 2.22661 3.03906C2.01827 3.2474 1.86202 3.40365 1.75786 3.50781C1.39327 3.8724 1.18494 4.32812 1.13286 4.875C1.08077 5.68229 1.25004 6.63281 1.64067 7.72656C2.31775 9.54948 3.39848 11.3464 4.88286 13.1172C6.75786 15.3307 8.98442 17.0755 11.5625 18.3516C12.8907 18.9766 14.0886 19.3151 15.1563 19.3672C15.9636 19.4193 16.6016 19.1849 17.0704 18.6641C17.2787 18.4297 17.6042 18.1042 18.0469 17.6875C18.099 17.6354 18.1771 17.5573 18.2813 17.4531C18.3855 17.349 18.4636 17.2708 18.5157 17.2188Z" fill="#02263E"/>
</svg>
