<svg width="32" height="32" viewBox="0 0 32 32" fill="none" xmlns="http://www.w3.org/2000/svg">
<path d="M9.6499 21.0426C8.98583 21.0426 8.36326 20.8765 7.78219 20.5445V22.9725C7.78219 23.4706 7.95859 23.896 8.31138 24.2488C8.66417 24.6016 9.11034 24.778 9.6499 24.778H26.3347C27.3308 24.778 28.1713 25.1308 28.8561 25.8363C29.5409 26.5419 29.8834 27.3824 29.8834 28.3577C29.8834 29.3331 29.5409 30.1736 28.8561 30.8791C28.1713 31.5847 27.3308 31.9375 26.3347 31.9375C25.3386 31.9375 24.4981 31.5847 23.8133 30.8791C23.1285 30.1736 22.7861 29.3435 22.7861 28.3889C22.7861 27.7248 22.9521 27.123 23.2841 26.5834H15.3153C15.6473 27.123 15.8133 27.7248 15.8133 28.3889C15.8133 29.3435 15.4605 30.1736 14.755 30.8791C14.0494 31.5847 13.2089 31.9375 12.2336 31.9375C11.2582 31.9375 10.4177 31.5847 9.71216 30.8791C9.00658 30.1736 8.65379 29.3435 8.65379 28.3889C8.65379 27.7248 8.81981 27.1022 9.15184 26.5212C8.28025 26.3966 7.54354 26.0024 6.94173 25.3383C6.33991 24.6742 6.039 23.8856 6.039 22.9725V17.4317V13.0737V8.21766V7.59509V3.5484L1.74328 1.74295C1.20373 1.53543 1.04808 1.16189 1.27636 0.622326C1.50463 0.0827675 1.88855 -0.083252 2.42811 0.124271L7.22188 2.17875C7.26339 2.17875 7.29452 2.17875 7.31527 2.17875C7.33602 2.17875 7.3464 2.17875 7.3464 2.17875V2.241C7.3464 2.241 7.35677 2.25138 7.37753 2.27213C7.39828 2.29288 7.42941 2.30326 7.47091 2.30326C7.47091 2.30326 7.48129 2.31364 7.50204 2.33439C7.52279 2.35514 7.54354 2.36552 7.5643 2.36552C7.58505 2.36552 7.59542 2.38627 7.59542 2.42777C7.59542 2.46928 7.61618 2.49003 7.65768 2.49003C7.65768 2.49003 7.65768 2.51078 7.65768 2.55229L7.71994 2.61454V2.6768L7.78219 2.73906C7.78219 2.73906 7.78219 2.75981 7.78219 2.80132C7.78219 2.80132 7.78219 2.81169 7.78219 2.83244C7.78219 2.8532 7.78219 2.87395 7.78219 2.8947C7.78219 2.91545 7.78219 2.94658 7.78219 2.98808V6.10093L30.0701 9.15151C30.1116 9.15151 30.1324 9.15151 30.1324 9.15151V9.21377C30.1739 9.21377 30.1946 9.21377 30.1946 9.21377C30.1946 9.21377 30.2154 9.21377 30.2569 9.21377C30.2984 9.21377 30.3192 9.22414 30.3192 9.24489C30.3192 9.26565 30.3192 9.27602 30.3192 9.27602C30.3192 9.27602 30.3399 9.27602 30.3814 9.27602C30.3814 9.27602 30.3918 9.2864 30.4125 9.30715C30.4333 9.3279 30.4437 9.33828 30.4437 9.33828C30.4437 9.33828 30.4644 9.33828 30.5059 9.33828L30.5682 9.40054C30.5682 9.44204 30.5682 9.46279 30.5682 9.46279C30.5682 9.46279 30.5889 9.46279 30.6304 9.46279C30.6304 9.5043 30.6304 9.52505 30.6304 9.52505C30.6719 9.56656 30.6927 9.58731 30.6927 9.58731C30.6927 9.62881 30.6927 9.64956 30.6927 9.64956C30.6927 9.64956 30.7031 9.65994 30.7238 9.68069C30.7446 9.70144 30.755 9.7222 30.755 9.74295C30.755 9.7637 30.755 9.77408 30.755 9.77408C30.755 9.77408 30.7653 9.78445 30.7861 9.80521C30.8068 9.82596 30.8172 9.83633 30.8172 9.83633C30.8172 9.87784 30.8172 9.89859 30.8172 9.89859C30.8172 9.89859 30.8172 9.90897 30.8172 9.92972C30.8172 9.95047 30.8172 9.96085 30.8172 9.96085V10.0231V17.4317C30.8172 18.4278 30.4644 19.2786 29.7588 19.9842C29.0533 20.6898 28.2024 21.0426 27.2063 21.0426H9.6499ZM13.4787 29.634C13.4787 29.634 13.5669 29.551 13.7433 29.385C13.9197 29.219 14.0079 28.8869 14.0079 28.3889C14.0079 27.8908 13.8315 27.4654 13.4787 27.1126C13.1259 26.7598 12.7109 26.5834 12.2336 26.5834C11.7563 26.5834 11.3412 26.7598 10.9884 27.1126C10.6356 27.4654 10.4592 27.8804 10.4592 28.3577C10.4592 28.835 10.6356 29.2501 10.9884 29.6029C11.3412 29.9557 11.7563 30.1321 12.2336 30.1321C12.7109 30.1321 13.1259 29.966 13.4787 29.634ZM27.611 29.634C27.611 29.634 27.6992 29.551 27.8756 29.385C28.052 29.219 28.1402 28.8869 28.1402 28.3889C28.1402 27.8908 27.9638 27.4654 27.611 27.1126C27.2582 26.7598 26.8328 26.5834 26.3347 26.5834C25.8367 26.5834 25.4112 26.7598 25.0585 27.1126C24.7057 27.4654 24.5293 27.8804 24.5293 28.3577C24.5293 28.835 24.7057 29.2501 25.0585 29.6029C25.4112 29.9557 25.8367 30.1321 26.3347 30.1321C26.8328 30.1321 27.2582 29.966 27.611 29.634ZM27.2063 19.2994C27.7044 19.2994 28.1298 19.1126 28.4826 18.7391C28.8354 18.3655 29.0118 17.9297 29.0118 17.4317V10.8324L7.78219 7.90637V8.21766V13.0737V17.4317C7.78219 17.9297 7.95859 18.3655 8.31138 18.7391C8.66417 19.1126 9.11034 19.2994 9.6499 19.2994H27.2063Z" fill="#212121"/>
</svg>
