<svg width="100" height="100" viewBox="0 0 100 100" fill="none" xmlns="http://www.w3.org/2000/svg">
<path fill-rule="evenodd" clip-rule="evenodd" d="M52.95 47.5571L72.0808 66.6878L67.9115 70.8621L47.05 50.0007V20.5007H52.95V47.5571ZM50 99.1673C22.8453 99.1673 0.833374 77.1554 0.833374 50.0007C0.833374 22.8459 22.8453 0.833984 50 0.833984C77.1548 0.833984 99.1667 22.8459 99.1667 50.0007C99.1667 77.1554 77.1548 99.1673 50 99.1673ZM50 93.2673C61.4751 93.2673 72.4801 88.7089 80.5942 80.5948C88.7083 72.4807 93.2667 61.4757 93.2667 50.0007C93.2667 38.5256 88.7083 27.5206 80.5942 19.4065C72.4801 11.2924 61.4751 6.73398 50 6.73398C38.525 6.73398 27.52 11.2924 19.4059 19.4065C11.2918 27.5206 6.73337 38.5256 6.73337 50.0007C6.73337 61.4757 11.2918 72.4807 19.4059 80.5948C27.52 88.7089 38.525 93.2673 50 93.2673Z" fill="#0067E1"/>
</svg>
